<svg xmlns="http://www.w3.org/2000/svg" width="200" height="200" viewBox="0 0 200 200" fill="none">
  <!-- compute -->
  <g transform="translate(24, 78)">
    <polygon points="28,16 0,30 28,44 56,30" fill="#F1F5F9"/>
    <polygon points="0,30 0,44 28,58 28,44" fill="#CBD5E1"/>
    <polygon points="28,44 28,58 56,44 56,30" fill="#94A3B8"/>
  </g>

  <!-- arrow -->
  <path d="M86 100 H108" stroke="#4AABF0" stroke-width="2.5" stroke-linecap="round"/>
  <path d="M102 94 L112 100 L102 106" fill="#4AABF0"/>

  <!-- plug module -->
  <g transform="translate(112, 78)">
    <rect x="0" y="6" width="28" height="36" rx="6" fill="#FFFFFF" stroke="#4AABF0" stroke-width="2"/>
    <polygon points="14,16 6,22 14,28 22,22" fill="#4AABF0"/>
    <circle cx="14" cy="22" r="3" fill="#FFFFFF"/>
  </g>

  <!-- arrow -->
  <path d="M146 100 H158" stroke="#22C55E" stroke-width="2.5" stroke-linecap="round"/>
  <path d="M152 94 L162 100 L152 106" fill="#22C55E"/>

  <!-- service out -->
  <g transform="translate(160, 84)">
    <rect x="0" y="0" width="22" height="32" rx="5" fill="#22C55E"/>
    <rect x="5" y="8" width="12" height="3" rx="1.5" fill="#FFFFFF" opacity="0.9"/>
    <rect x="5" y="14" width="9" height="3" rx="1.5" fill="#FFFFFF" opacity="0.55"/>
  </g>
</svg>
