<svg width="705" height="420" viewBox="0 0 705 420" fill="none" xmlns="http://www.w3.org/2000/svg">
<rect x="0.5" y="0.5" width="704" height="419" rx="15.5" fill="#F8F4FF"/>
<rect x="0.5" y="0.5" width="704" height="419" rx="15.5" stroke="#4AABF0"/>
<mask id="mask0_36390_12188" style="mask-type:alpha" maskUnits="userSpaceOnUse" x="0" y="0" width="705" height="449">
<rect x="0.5" y="0.5" width="704" height="448" rx="15.5" fill="#D9D9D9" stroke="black"/>
</mask>
<g mask="url(#mask0_36390_12188)">
<path d="M319.74 19.512C321.324 20.784 322.692 22.032 323.82 23.28L322.164 24.888C321.228 23.688 319.884 22.416 318.156 21.024L319.74 19.512ZM333.492 41.064C332.196 41.064 330.804 41.04 329.292 41.016C327.756 40.992 326.508 40.848 325.524 40.608C324.564 40.32 323.748 39.744 323.028 38.928C322.716 38.52 322.428 38.328 322.14 38.328C321.636 38.328 320.772 39.408 319.548 41.568L317.868 40.008C319.068 38.064 320.172 36.84 321.132 36.36V29.568H317.892V27.456H323.268V36.552C323.364 36.648 323.46 36.744 323.58 36.888C324.132 37.536 324.708 38.016 325.284 38.328C325.98 38.664 327.036 38.88 328.428 38.928C329.772 38.952 331.356 38.976 333.18 38.976C334.356 38.976 335.556 38.952 336.78 38.928C337.98 38.904 338.916 38.856 339.588 38.808L339.012 41.064H333.492ZM326.268 20.496H337.5V22.608H326.268V20.496ZM324.756 25.92H339.252V28.08H331.86C330.708 30.936 329.628 33.12 328.596 34.632C331.284 34.296 333.54 33.912 335.388 33.432C334.86 32.232 334.308 31.104 333.732 30.024L335.58 29.424C336.828 31.608 337.956 34.104 338.94 36.936L336.9 37.464C336.66 36.744 336.42 36.072 336.18 35.4C333.588 36.048 330.18 36.576 326.004 37.008L325.428 35.04C326.388 34.752 327.78 32.424 329.58 28.08H324.756V25.92ZM346.332 28.008H358.788V33.144H346.332V28.008ZM356.7 31.464V29.736H348.444V31.464H356.7ZM361.044 34.44V41.496H358.836V40.56H346.404V41.496H344.172V34.44H361.044ZM346.404 38.664H358.836V36.312H346.404V38.664ZM342.108 20.808H347.316V19.368H349.572V20.808H355.428V19.368H357.684V20.808H362.892V22.8H357.684V24.024H355.428V22.8H349.572V24.024H347.316V22.8H342.108V20.808ZM362.412 24.768V29.544H360.228V26.688H344.772V29.664H342.588V24.768H362.412ZM371.796 32.52C371.34 32.832 370.884 33.144 370.404 33.432L368.988 31.608V41.304H366.804V25.728H371.796C371.46 24.864 371.1 24.024 370.668 23.256H365.796V21.072H375.228C375.012 20.496 374.772 19.944 374.532 19.464L377.052 19.08C377.292 19.68 377.508 20.352 377.748 21.072H387.204V23.256H382.164C381.78 24.168 381.396 24.984 380.988 25.728H386.148V38.592C386.148 40.416 385.356 41.352 383.796 41.352H381.348L380.772 39.288L383.076 39.36C383.652 39.36 383.964 38.928 383.964 38.112V27.744H368.988V31.512C370.908 30.456 372.492 29.208 373.788 27.792L375.396 29.208C374.412 30.36 373.284 31.416 372.012 32.352H381.18V38.688H371.796V32.52ZM378.972 36.672V34.392H374.004V36.672H378.972ZM379.044 27.768C380.964 29.088 382.596 30.408 383.916 31.704L382.212 33.384C381.108 32.088 379.524 30.72 377.508 29.232L379.044 27.768ZM374.124 25.728H378.492C378.924 24.912 379.308 24.096 379.668 23.256H373.164C373.5 24 373.836 24.816 374.124 25.728Z" fill="#1E293B"/>
<ellipse cx="351.5" cy="391" rx="301.5" ry="13" fill="#02F6F7" fill-opacity="0.3"/>
<mask id="path-5-inside-1_36390_12188" fill="white">
<path d="M94 316C94 311.582 97.5817 308 102 308H600C604.418 308 608 311.582 608 316V334C608 338.418 604.418 342 600 342H102C97.5817 342 94 338.418 94 334V316Z"/>
</mask>
<path d="M94 316C94 311.582 97.5817 308 102 308H600C604.418 308 608 311.582 608 316V334C608 338.418 604.418 342 600 342H102C97.5817 342 94 338.418 94 334V316Z" fill="#4AABF0" fill-opacity="0.2"/>
<path d="M94 316C94 311.029 98.0294 307 103 307H599C603.971 307 608 311.029 608 316C608 312.134 604.418 309 600 309H102C97.5817 309 94 312.134 94 316ZM608 334C608 338.971 603.971 343 599 343H103C98.0294 343 94 338.971 94 334C94 337.866 97.5817 341 102 341H600C604.418 341 608 337.866 608 334ZM94 342V308V342ZM608 308V342V308Z" fill="url(#paint0_linear_36390_12188)" mask="url(#path-5-inside-1_36390_12188)"/>
<path d="M316.168 324.82V326.71H318.66V324.82H316.168ZM316.168 327.648V329.734H318.66V327.648H316.168ZM316.168 330.7V331.344H315.174V323.14C314.838 323.672 314.46 324.176 314.068 324.652L313.732 323.588C314.88 322.076 315.678 320.41 316.154 318.59L317.134 318.786C316.924 319.542 316.658 320.27 316.35 320.984H318.884C318.66 320.242 318.38 319.514 318.058 318.814L319.024 318.548C319.36 319.388 319.612 320.144 319.794 320.844L319.416 320.984H322.09V321.964H319.654V323.868H321.81V324.82H319.654V326.71H321.81V327.648H319.654V329.734H322.244V330.7H316.168ZM318.66 321.964H316.168V323.868H318.66V321.964ZM313.886 324.33V325.352C313.466 325.562 313.032 325.758 312.584 325.94V329.986C312.584 330.77 312.164 331.176 311.338 331.176H310.05L309.84 330.196C310.232 330.238 310.624 330.266 310.988 330.266C311.366 330.266 311.562 330.084 311.562 329.72V326.346C310.988 326.542 310.4 326.738 309.812 326.906L309.56 325.898C310.246 325.744 310.918 325.548 311.562 325.324V322.104H309.77V321.124H311.562V318.534H312.584V321.124H313.998V322.104H312.584V324.932C313.032 324.736 313.466 324.54 313.886 324.33ZM328.824 319.122H335.67V325.59H332.758V327.242H335.908V328.194H332.758V330.014H336.426V330.98H327.998V330.014H331.75V328.194H328.586V327.242H331.75V325.59H328.824V319.122ZM334.704 324.694V322.804H332.758V324.694H334.704ZM331.75 324.694V322.804H329.79V324.694H331.75ZM329.79 321.922H331.75V320.018H329.79V321.922ZM332.758 320.018V321.922H334.704V320.018H332.758ZM323.882 323.756H325.408V320.438H323.686V319.486H328.152V320.438H326.444V323.756H327.984V324.722H326.444V327.9C326.976 327.718 327.48 327.522 327.984 327.298V328.278C326.696 328.81 325.31 329.258 323.826 329.622L323.574 328.656C324.19 328.544 324.806 328.404 325.408 328.236V324.722H323.882V323.756ZM349.754 320.648V331.19H348.774V330.252H346.142V331.19H345.176V320.648H349.754ZM346.142 329.286H348.774V321.614H346.142V329.286ZM340.024 318.604H341.032V321.432H343.888C343.888 325.8 343.818 328.502 343.678 329.538C343.538 330.686 342.852 331.274 341.62 331.274C341.41 331.274 341.06 331.246 340.556 331.218L340.304 330.294C340.752 330.322 341.144 330.35 341.48 330.35C342.194 330.35 342.614 329.944 342.726 329.146C342.81 328.418 342.866 326.164 342.894 322.412H341.032C340.976 326.542 340.052 329.552 338.26 331.456L337.518 330.798C339.142 329.048 339.982 326.248 340.024 322.412H337.784V321.432H340.024V318.604ZM355.956 319.71H359.526V318.576H360.464V319.71H363.978V320.634H360.464V321.824H363.516V325.394H360.464V329.678H359.526V325.8C358.812 327.046 357.706 328.11 356.208 328.992L355.578 328.194C357.118 327.41 358.21 326.472 358.868 325.394H356.474V321.824H359.526V320.634H355.956V319.71ZM362.592 324.498V322.706H360.464V324.498H362.592ZM359.526 324.498V322.706H357.412V324.498H359.526ZM361.57 325.814C362.564 326.612 363.404 327.41 364.09 328.222L363.418 328.894C362.802 328.11 361.976 327.298 360.912 326.43L361.57 325.814ZM352.764 318.786C353.73 319.514 354.542 320.242 355.2 320.97L354.486 321.67C353.898 320.97 353.1 320.228 352.078 319.444L352.764 318.786ZM360.926 331.148C360.156 331.148 359.316 331.134 358.42 331.12C357.524 331.106 356.782 331.022 356.222 330.868C355.662 330.7 355.172 330.35 354.738 329.846C354.542 329.608 354.36 329.496 354.192 329.496C353.856 329.496 353.31 330.14 352.554 331.428L351.798 330.742C352.526 329.566 353.184 328.852 353.744 328.6V324.344H351.756V323.42H354.682V328.656C354.794 328.74 354.906 328.838 355.032 328.978C355.368 329.384 355.732 329.678 356.124 329.86C356.558 330.056 357.188 330.168 358.028 330.196C358.77 330.21 359.694 330.224 360.786 330.224C361.458 330.224 362.13 330.21 362.816 330.196C363.502 330.182 364.034 330.168 364.398 330.14L364.146 331.148H360.926ZM375.822 318.562H376.83V331.414H375.822V318.562ZM367.59 323.168L367.1 325.492H372.546C372.546 327.802 372.448 329.328 372.252 330.056C372.056 330.84 371.188 331.26 369.662 331.316C369.228 331.316 368.794 331.288 368.346 331.26L368.094 330.322C368.542 330.35 368.99 330.378 369.438 330.378C370.502 330.378 371.132 330.126 371.3 329.636C371.454 329.118 371.538 328.04 371.538 326.402H366.022L366.75 322.23H371.412V320.046H366.316V319.122H372.406V323.168H367.59ZM387.456 321.572C387.232 321.922 386.98 322.244 386.7 322.552L386.168 321.838C386.924 320.914 387.456 319.794 387.736 318.45L388.66 318.576C388.576 318.954 388.478 319.318 388.366 319.654H391.936V320.494H391.166C390.956 321.558 390.55 322.426 389.962 323.126C390.606 323.546 391.418 323.896 392.37 324.19L391.908 325.002C390.858 324.652 389.99 324.232 389.318 323.742C388.646 324.26 387.848 324.638 386.896 324.876L386.518 324.064C387.344 323.868 388.044 323.56 388.604 323.168C388.086 322.678 387.708 322.146 387.456 321.572ZM388.044 320.494C388.016 320.564 387.974 320.634 387.946 320.69C388.156 321.418 388.59 322.048 389.234 322.608C389.752 322.02 390.102 321.306 390.27 320.494H388.044ZM390.284 324.988L390.746 325.8C389.556 325.968 388.184 326.094 386.644 326.178V327.102H390.97V327.844H386.644V328.698H392.104V329.538H386.644V330.378C386.644 331.106 386.238 331.47 385.454 331.47H383.774L383.578 330.602C384.124 330.63 384.642 330.658 385.146 330.658C385.496 330.658 385.678 330.49 385.678 330.154V329.538H379.924V328.698H385.678V327.844H380.904V327.102H385.678V326.22C384.306 326.276 382.822 326.304 381.212 326.304L380.96 325.548C384.712 325.548 387.82 325.352 390.284 324.988ZM381.702 318.52H382.542V319.108H384.068V318.506H384.908V319.108H386.56V319.892H384.908V320.564H384.068V319.892H382.542V320.592H381.744C381.688 320.732 381.646 320.872 381.604 321.012H386.07C386.028 322.832 385.972 323.896 385.902 324.218C385.818 324.526 385.678 324.722 385.454 324.834C385.244 324.946 384.782 325.002 384.054 325.002H383.536L383.354 324.428H380.736V322.524C380.54 322.72 380.358 322.902 380.162 323.07L379.616 322.412C380.274 321.88 380.722 321.166 380.96 320.284L381.702 320.41V319.892H379.938V319.108H381.702V318.52ZM384.152 324.274H384.278C384.614 324.274 384.824 324.232 384.922 324.148C385.02 324.064 385.076 323.91 385.104 323.714C385.132 323.49 385.16 322.832 385.188 321.74H381.282C381.142 321.964 381.016 322.174 380.876 322.342H384.152V324.274ZM383.354 323.798V322.986H381.534V323.798H383.354Z" fill="#1E293B"/>
<ellipse cx="351" cy="375" rx="317" ry="17" stroke="#00CCCD"/>
<path d="M324.712 372.768L326.2 373.552C326.024 373.744 325.848 373.936 325.672 374.112H329.816V375.408C328.088 378.48 324.888 380.224 320.2 380.624L319.512 379.104C320.792 379.04 321.944 378.864 322.984 378.608C322.552 378.08 322.104 377.616 321.656 377.2L323.096 376.496C323.608 376.992 324.088 377.52 324.552 378.08C325.96 377.488 327.08 376.656 327.896 375.584H323.752C322.52 376.304 321.064 376.848 319.384 377.216L318.408 375.696C321.224 375.184 323.336 374.208 324.712 372.768ZM324.6 382.768C325.144 383.312 325.656 383.904 326.168 384.544C327.656 383.888 328.856 382.992 329.768 381.856H325.528C324.152 382.496 322.536 382.992 320.664 383.376L319.688 381.888C323.176 381.568 325.72 380.544 327.352 378.832L328.776 379.6C328.52 379.856 328.248 380.112 327.96 380.352H331.928V381.648C329.624 385.376 325.368 387.328 319.128 387.488L318.44 385.888C320.792 385.888 322.84 385.632 324.584 385.12C324.104 384.512 323.624 383.968 323.128 383.488L324.6 382.768ZM341.848 378.64V380.112H340.152V377.504C339.176 378.864 337.448 380.048 334.968 381.056L334.088 379.616C336.216 378.944 337.736 378.224 338.648 377.424H334.184V375.872H340.152V372.832H341.848V375.872H347.816V377.424H341.848V377.536C343.96 378.08 345.912 378.72 347.672 379.488L346.76 380.88C345.16 379.952 343.512 379.216 341.848 378.64ZM340.888 383.824C340.584 384.352 340.232 384.816 339.848 385.232C338.824 386.256 337.048 387.072 334.504 387.68L333.832 386.128C335.976 385.664 337.512 385.024 338.472 384.192C338.728 383.952 338.968 383.696 339.16 383.44H334.056V381.888H339.912C340.04 381.472 340.136 381.04 340.2 380.592H341.896C341.832 381.04 341.752 381.472 341.656 381.888H347.944V383.44H342.472C343.88 384.752 345.8 385.68 348.2 386.224L347.352 387.728C344.536 386.96 342.376 385.648 340.888 383.824ZM337.288 373.072C337.72 373.728 338.104 374.48 338.456 375.344L337.048 375.712C336.728 374.96 336.328 374.24 335.848 373.552L337.288 373.072ZM344.696 373.04L346.152 373.424C345.816 374.288 345.384 375.04 344.856 375.696L343.464 375.2C343.944 374.624 344.344 373.904 344.696 373.04ZM350.392 373.424H358.104V374.896H356.632V376.832H358.456V378.368H356.632V381.712H355.032V378.368H353.368C353.176 379.936 352.584 381.104 351.624 381.904L350.36 380.8C351.096 380.24 351.544 379.424 351.736 378.368H349.976V376.832H351.832V374.896H350.392V373.424ZM353.448 374.896V376.832H355.032V374.896H353.448ZM359.064 373.952H360.648V379.424H359.064V373.952ZM350.808 382.96H356.232V381.888H357.896V382.96H363.208V384.496H357.896V385.824H364.088V387.344H349.912V385.824H356.232V384.496H350.808V382.96ZM362.04 381.92H359.896L359.528 380.352C360.216 380.416 360.872 380.464 361.48 380.464C361.784 380.464 361.944 380.208 361.944 379.696V373.072H363.56V380.096C363.56 381.312 363.048 381.92 362.04 381.92ZM376.408 374.352C377.88 374.352 379.032 374.672 379.88 375.328C380.696 375.968 381.208 376.912 381.416 378.192H379.528C379.368 377.456 379.016 376.912 378.504 376.544C377.976 376.176 377.272 376 376.408 376C375.336 376 374.488 376.352 373.864 377.088C373.176 377.856 372.84 378.928 372.84 380.336C372.84 381.68 373.144 382.72 373.752 383.44C374.408 384.208 375.432 384.592 376.824 384.592C377.368 384.592 377.88 384.528 378.36 384.4C378.808 384.272 379.208 384.096 379.592 383.872V381.52H376.568V379.92H381.464V384.752C380.856 385.232 380.168 385.584 379.384 385.84C378.552 386.096 377.64 386.224 376.616 386.224C374.792 386.224 373.384 385.648 372.376 384.496C371.432 383.424 370.968 382.032 370.968 380.336C370.968 378.624 371.432 377.216 372.376 376.112C373.368 374.928 374.712 374.352 376.408 374.352ZM383.542 374.576H388.278C391.03 374.576 392.422 375.744 392.422 378.08C392.422 380.432 391.03 381.616 388.246 381.616H385.414V386H383.542V374.576ZM385.414 376.176V380.016H388.134C388.966 380.016 389.574 379.856 389.958 379.568C390.342 379.264 390.534 378.768 390.534 378.08C390.534 377.392 390.326 376.912 389.942 376.624C389.558 376.32 388.95 376.176 388.134 376.176H385.414ZM394.026 374.576H395.898V381.696C395.898 382.688 396.122 383.408 396.586 383.888C397.034 384.352 397.77 384.592 398.778 384.592C399.77 384.592 400.506 384.352 400.97 383.888C401.418 383.408 401.658 382.688 401.658 381.696V374.576H403.53V381.664C403.53 383.152 403.114 384.288 402.282 385.072C401.45 385.84 400.282 386.224 398.778 386.224C397.258 386.224 396.09 385.84 395.29 385.088C394.442 384.288 394.026 383.152 394.026 381.664V374.576Z" fill="#1E293B"/>
<path d="M427.5 188.882C427.496 188.937 424.225 231.386 447.5 252.723C470.787 274.07 612.955 307.989 613 308H109C109.044 307.989 240.611 274.185 264 252.723C287.378 231.27 293.492 188.936 293.5 188.882H427.5ZM443.87 186.924H274.13L359 150L443.87 186.924Z" fill="url(#paint1_linear_36390_12188)"/>
<ellipse cx="352.5" cy="286.5" rx="317.5" ry="69.5" fill="url(#paint2_linear_36390_12188)"/>
<path d="M670 286.5C670 248.116 527.85 217 352.5 217C177.15 217 35 248.116 35 286.5" stroke="url(#paint3_linear_36390_12188)"/>
<path d="M171.032 242.124V251.688H170.156V250.944H163.844V251.688H162.968V242.124H165.536C165.8 241.644 166.004 241.164 166.124 240.66L167 240.78C166.868 241.26 166.676 241.716 166.436 242.124H171.032ZM163.844 250.116H170.156V248.16H163.844V250.116ZM163.844 247.368H170.156V245.532H163.844V247.368ZM163.844 244.74H170.156V242.952H163.844V244.74ZM182.264 242.112H180.392V245.436H182.264V242.112ZM182.264 246.264H180.38C180.284 248.736 179.576 250.548 178.232 251.712L177.596 251.136C178.82 250.104 179.468 248.484 179.54 246.264H178.232V245.436H179.552V242.112H178.496V241.296H184.196V242.112H183.092V245.436H184.52V246.264H183.092V251.676H182.264V246.264ZM175.256 242.184H173.816V241.344H177.968V242.184H176.072C175.904 243.144 175.652 244.056 175.328 244.896H177.548V250.332H175.484V251.28H174.692V246.264C174.44 246.72 174.164 247.152 173.864 247.56L173.408 246.816C174.344 245.472 174.956 243.924 175.256 242.184ZM175.484 249.576H176.744V245.664H175.484V249.576ZM185.732 243.852H190.4C190.496 243.156 190.544 242.436 190.556 241.68V240.708H191.444V241.488C191.444 242.328 191.384 243.108 191.288 243.852H196.268V244.692H191.54C192.38 247.404 194.036 249.492 196.496 250.956L195.956 251.652C193.544 250.164 191.888 248.076 190.988 245.364C190.244 248.28 188.588 250.404 186.032 251.736L185.492 251.016C188.048 249.756 189.632 247.644 190.256 244.692H185.732V243.852ZM201.188 241.692H202.94V240.732H203.744V241.692H205.676V240.732H206.492V241.692H208.352V242.46H206.492V243.36H205.676V242.46H203.744V243.36H202.94V242.46H201.188V241.692ZM204.56 249.228C204.416 249.528 204.236 249.804 204.044 250.044C203.492 250.74 202.532 251.28 201.152 251.676L200.84 250.956C202.04 250.632 202.892 250.164 203.42 249.552C203.54 249.396 203.66 249.24 203.756 249.072H200.96V248.28H204.116C204.212 247.992 204.284 247.68 204.344 247.368H201.824V243.732H207.572V247.368H205.112C205.064 247.704 204.992 248.004 204.92 248.28H208.376V249.072H205.34C206.036 249.888 207.092 250.548 208.508 251.052L207.932 251.736C206.372 251.064 205.256 250.236 204.56 249.228ZM200.024 245.556V251.664H199.208V245.688C198.836 246.816 198.368 247.848 197.792 248.772L197.42 247.836C198.248 246.684 198.848 245.388 199.208 243.924V243.852H197.816V243.072H199.208V240.744H200.024V243.072H201.284V243.852H200.024V244.644C200.54 245.268 201.068 245.988 201.62 246.792L201.164 247.476C200.72 246.684 200.336 246.048 200.024 245.556ZM206.792 246.696V245.88H202.604V246.696H206.792ZM202.604 245.232H206.792V244.428H202.604V245.232ZM210.116 241.236H215.756V242.004H214.544V243.804H216.02V244.596H214.544V247.236H213.704V244.596H212.132C212 245.832 211.544 246.756 210.752 247.38L210.104 246.816C210.776 246.312 211.172 245.58 211.292 244.596H209.804V243.804H211.34V242.004H210.116V241.236ZM212.168 242.004V243.804H213.704V242.004H212.168ZM216.728 241.512H217.556V245.64H216.728V241.512ZM210.404 248.412H214.616V247.368H215.48V248.412H219.608V249.204H215.48V250.608H220.268V251.4H209.732V250.608H214.616V249.204H210.404V248.412ZM218.768 247.344H217.16L216.98 246.528C217.508 246.564 218 246.588 218.48 246.588C218.756 246.588 218.9 246.396 218.9 246.036V240.852H219.728V246.24C219.728 246.972 219.404 247.344 218.768 247.344Z" fill="#1E293B"/>
<path d="M103 110C103 106.686 105.686 104 109 104H257C260.314 104 263 106.686 263 110V130C263 133.314 260.314 136 257 136H109C105.686 136 103 133.314 103 130V110Z" fill="url(#paint4_radial_36390_12188)"/>
<path d="M170.196 119.94V124.248C170.568 124.104 170.928 123.936 171.276 123.768L171.42 124.524C170.796 124.776 170.052 125.04 169.212 125.316L168.984 124.572C169.236 124.488 169.368 124.332 169.368 124.104V116.196C171.9 115.812 173.868 115.38 175.272 114.9L175.752 115.596C175.152 115.8 174.456 115.992 173.64 116.184C173.652 117.312 173.688 118.284 173.736 119.112H176.304V119.94H173.808C173.856 120.456 173.928 120.912 174 121.296C174.192 122.364 174.432 123.168 174.708 123.708C174.972 124.212 175.176 124.464 175.332 124.464C175.488 124.452 175.632 123.792 175.752 122.472L176.472 122.868C176.244 124.596 175.908 125.472 175.476 125.472C175.104 125.472 174.708 125.148 174.288 124.512C173.856 123.852 173.508 122.88 173.244 121.596C173.136 121.104 173.052 120.552 172.992 119.94H170.196ZM172.812 116.364C172.02 116.532 171.144 116.688 170.196 116.844V119.112H172.92C172.848 118.296 172.812 117.372 172.812 116.364ZM172.176 123.024C172.848 123.84 173.376 124.572 173.748 125.208L173.088 125.652C172.692 124.968 172.188 124.236 171.576 123.456L172.176 123.024ZM168.204 114.684L168.984 115.044C168.684 115.956 168.3 116.82 167.844 117.636V125.724H167.004V118.944C166.596 119.496 166.164 120.012 165.684 120.516L165.408 119.604C166.692 118.176 167.628 116.532 168.204 114.684ZM177.828 115.356H181.104V116.052C180.456 117.18 179.844 118.104 179.244 118.848H181.164V119.34C181.116 120.9 180.804 122.22 180.204 123.288C180.54 123.6 180.888 123.84 181.248 124.008C182.292 124.452 183.936 124.68 186.18 124.704C186.948 124.704 187.728 124.68 188.544 124.632L188.376 125.496H186.576C183.876 125.496 181.932 125.208 180.732 124.644C180.372 124.476 180.036 124.248 179.748 123.984C179.244 124.632 178.62 125.172 177.888 125.604L177.456 124.848C178.152 124.452 178.716 123.96 179.16 123.372C178.608 122.676 178.14 121.8 177.756 120.744L178.488 120.468C178.824 121.332 179.196 122.052 179.628 122.628C180.06 121.764 180.324 120.756 180.396 119.58H178.14V118.956C178.884 118.092 179.556 117.156 180.156 116.148H177.828V115.356ZM182.352 117.972H183.18V122.352H184.764V116.292C183.948 116.388 183.06 116.436 182.112 116.436L181.848 115.656C184.116 115.656 186 115.38 187.488 114.84L187.908 115.572C187.236 115.836 186.456 116.04 185.592 116.184V118.656H187.68V119.448H185.592V122.352H188.088V123.168H182.352V117.972ZM198.816 115.98H194.988V118.308H198.816V115.98ZM194.976 119.1C194.88 120.852 194.388 122.376 193.476 123.648L192.84 123.072C193.704 121.92 194.136 120.444 194.148 118.62V115.176H199.632V119.1H194.976ZM196.32 119.676C197.856 120.828 199.14 121.968 200.172 123.108L199.56 123.732C198.636 122.628 197.364 121.464 195.756 120.228L196.32 119.676ZM190.536 114.888C191.34 115.512 192.024 116.124 192.576 116.748L191.952 117.36C191.472 116.772 190.8 116.136 189.948 115.452L190.536 114.888ZM197.508 125.484C196.86 125.484 196.152 125.472 195.396 125.46C194.628 125.448 194.016 125.376 193.536 125.244C193.068 125.1 192.648 124.8 192.276 124.368C192.12 124.164 191.964 124.068 191.82 124.068C191.532 124.068 191.064 124.62 190.404 125.724L189.756 125.136C190.392 124.128 190.956 123.516 191.448 123.3V119.652H189.732V118.86H192.252V123.348C192.348 123.42 192.444 123.516 192.54 123.624C192.828 123.972 193.128 124.224 193.464 124.38C193.824 124.548 194.364 124.644 195.06 124.668C195.684 124.68 196.464 124.692 197.388 124.692C197.952 124.692 198.528 124.68 199.116 124.668C199.692 124.656 200.148 124.644 200.46 124.62L200.256 125.484H197.508Z" fill="#1E293B"/>
<path d="M273 108C273 104.686 275.686 102 279 102H427C430.314 102 433 104.686 433 108V128C433 131.314 430.314 134 427 134H279C275.686 134 273 131.314 273 128V108Z" fill="url(#paint5_radial_36390_12188)"/>
<path d="M341.156 112.624C341.288 112.948 341.42 113.308 341.54 113.704H346.292V114.496H335.696V113.704H340.616C340.496 113.368 340.352 113.068 340.208 112.792L341.156 112.624ZM344.372 123.664H343.364L343.16 122.884L344.12 122.92C344.612 122.92 344.864 122.728 344.864 122.344V119.08H337.136V123.7H336.308V118.324H345.692V122.524C345.692 123.28 345.248 123.664 344.372 123.664ZM337.652 115.276H344.36V117.604H337.652V115.276ZM343.52 116.932V115.948H338.492V116.932H343.52ZM338.648 119.848H343.364V122.248H338.648V119.848ZM342.596 121.6V120.496H339.428V121.6H342.596ZM355.916 118.912C355.184 118.264 354.62 117.532 354.212 116.74H352.1C351.584 117.532 350.924 118.264 350.132 118.912H355.916ZM355.088 116.74C355.808 117.952 356.96 118.9 358.544 119.584L358.16 120.388C357.476 120.052 356.876 119.68 356.36 119.272V123.64H355.496V122.908H350.504V123.64H349.64V119.284C349.088 119.68 348.512 120.04 347.888 120.364L347.492 119.584C349.076 118.792 350.288 117.844 351.116 116.74H347.792V115.924H351.644C351.98 115.324 352.22 114.712 352.364 114.076H348.68V113.26H357.332V114.076H353.216C353.072 114.724 352.856 115.348 352.568 115.924H358.22V116.74H355.088ZM350.504 122.104H355.496V119.728H350.504V122.104ZM363.2 113.68V122.464H362.372V121.756H360.86V122.752H360.008V113.68H363.2ZM360.86 120.94H362.372V114.496H360.86V120.94ZM366.632 112.756H367.52V116.332H370.124V117.184H367.52V122.44H370.472V123.292H363.632V122.44H366.632V117.184H364.052V116.332H366.632V112.756Z" fill="#1E293B"/>
<path d="M443 110C443 106.686 445.686 104 449 104H597C600.314 104 603 106.686 603 110V130C603 133.314 600.314 136 597 136H449C445.686 136 443 133.314 443 130V110Z" fill="url(#paint6_radial_36390_12188)"/>
<path d="M499.732 119.352H502.168V114.756H503.032V119.352H510.304V120.192H506.356C506.86 122.112 508.228 123.612 510.448 124.692L509.944 125.496C507.52 124.212 506.056 122.448 505.528 120.192H503.032V124.536C503.932 124.32 504.832 124.044 505.72 123.708L505.948 124.536C504.772 124.944 503.512 125.292 502.168 125.604L501.892 124.812C502.072 124.716 502.168 124.584 502.168 124.392V120.192H499.732V119.352ZM508.48 114.852L509.068 115.44C508.108 116.52 506.656 117.492 504.736 118.356L504.22 117.672C506.128 116.832 507.544 115.896 508.48 114.852ZM515.992 114.696H516.88V118.404H521.332V119.244H516.88V124.38H522.352V125.22H511.672V124.38H515.992V114.696ZM523.66 115.332H534.328V116.184H529.12V117.996C530.608 118.74 532.12 119.604 533.656 120.588L533.14 121.356C531.544 120.3 530.2 119.484 529.12 118.908V125.724H528.244V116.184H523.66V115.332ZM535.768 116.724H540.736C540.412 116.088 540.016 115.488 539.536 114.924L540.4 114.612C540.856 115.188 541.264 115.896 541.648 116.724H546.232V117.588H544.36C543.772 119.484 542.884 121.08 541.708 122.352C542.98 123.432 544.576 124.32 546.496 125.028L546.028 125.748C544.036 125.004 542.404 124.08 541.108 122.964C539.74 124.224 538.036 125.148 535.996 125.736L535.54 124.98C537.556 124.44 539.212 123.588 540.508 122.412C539.116 121.044 538.156 119.436 537.616 117.588H535.768V116.724ZM538.468 117.588C538.984 119.208 539.86 120.612 541.108 121.812C542.176 120.648 542.956 119.244 543.46 117.588H538.468Z" fill="#1E293B"/>
<path d="M580.492 265.072C580.708 265.072 580.876 265.132 581.02 265.276C581.152 265.408 581.224 265.576 581.224 265.78C581.224 265.996 581.152 266.164 581.02 266.296C580.876 266.428 580.696 266.5 580.492 266.5C580.288 266.5 580.12 266.428 579.988 266.296C579.844 266.152 579.772 265.984 579.772 265.78C579.772 265.576 579.844 265.408 579.988 265.276C580.12 265.132 580.288 265.072 580.492 265.072ZM584.5 265.072C584.704 265.072 584.884 265.132 585.028 265.276C585.16 265.408 585.232 265.576 585.232 265.78C585.232 265.996 585.16 266.164 585.028 266.296C584.884 266.428 584.704 266.5 584.5 266.5C584.296 266.5 584.128 266.428 583.984 266.296C583.84 266.152 583.78 265.984 583.78 265.78C583.78 265.576 583.84 265.408 583.984 265.276C584.128 265.132 584.296 265.072 584.5 265.072ZM588.496 265.072C588.7 265.072 588.868 265.132 589.012 265.276C589.156 265.408 589.228 265.576 589.228 265.78C589.228 265.996 589.156 266.164 589.012 266.296C588.868 266.428 588.7 266.5 588.496 266.5C588.292 266.5 588.124 266.428 587.98 266.296C587.836 266.152 587.776 265.984 587.776 265.78C587.776 265.576 587.836 265.408 587.98 265.276C588.124 265.132 588.292 265.072 588.496 265.072ZM592.492 265.072C592.708 265.072 592.876 265.132 593.02 265.276C593.152 265.408 593.224 265.576 593.224 265.78C593.224 265.996 593.152 266.164 593.02 266.296C592.876 266.428 592.696 266.5 592.492 266.5C592.288 266.5 592.12 266.428 591.988 266.296C591.844 266.152 591.772 265.984 591.772 265.78C591.772 265.576 591.844 265.408 591.988 265.276C592.12 265.132 592.288 265.072 592.492 265.072ZM596.5 265.072C596.704 265.072 596.884 265.132 597.028 265.276C597.16 265.408 597.232 265.576 597.232 265.78C597.232 265.996 597.16 266.164 597.028 266.296C596.884 266.428 596.704 266.5 596.5 266.5C596.296 266.5 596.128 266.428 595.984 266.296C595.84 266.152 595.78 265.984 595.78 265.78C595.78 265.576 595.84 265.408 595.984 265.276C596.128 265.132 596.296 265.072 596.5 265.072ZM600.496 265.072C600.7 265.072 600.868 265.132 601.012 265.276C601.156 265.408 601.228 265.576 601.228 265.78C601.228 265.996 601.156 266.164 601.012 266.296C600.868 266.428 600.7 266.5 600.496 266.5C600.292 266.5 600.124 266.428 599.98 266.296C599.836 266.152 599.776 265.984 599.776 265.78C599.776 265.576 599.836 265.408 599.98 265.276C600.124 265.132 600.292 265.072 600.496 265.072Z" fill="#1E293B"/>
<path d="M482.344 240.416H491.692V241.256H489.688V244.436H492.316V245.264H489.688V250.58H488.812V245.264H485.344C485.236 246.5 485.008 247.52 484.648 248.336C484.192 249.344 483.436 250.124 482.38 250.676L481.912 249.932C482.884 249.38 483.568 248.648 483.952 247.736C484.204 247.04 484.372 246.224 484.468 245.264H481.696V244.436H484.516C484.516 244.28 484.528 244.136 484.528 244.016V241.256H482.344V240.416ZM485.416 241.256V244.016C485.416 244.16 485.404 244.304 485.404 244.436H488.812V241.256H485.416ZM494.38 239.936C495.232 240.56 495.952 241.172 496.54 241.772L495.952 242.36C495.424 241.784 494.704 241.16 493.792 240.5L494.38 239.936ZM494.164 242.876C494.956 243.476 495.628 244.064 496.168 244.652L495.58 245.24C495.1 244.676 494.44 244.076 493.576 243.44L494.164 242.876ZM495.556 246.116L496.3 246.404C495.772 247.916 495.172 249.332 494.512 250.664L493.708 250.304C494.428 248.936 495.04 247.544 495.556 246.116ZM498.772 242.084H500.476C500.62 241.712 500.728 241.34 500.812 240.956H497.92V244.448C497.872 247.04 497.416 249.128 496.552 250.688L495.904 250.112C496.648 248.756 497.044 246.872 497.08 244.448V240.176H504.28V240.956H501.628C501.544 241.352 501.436 241.724 501.304 242.084H503.644V246.296H501.652V249.692C501.652 250.34 501.328 250.664 500.704 250.664H499.696L499.516 249.884C499.828 249.92 500.128 249.944 500.416 249.944C500.68 249.944 500.824 249.788 500.824 249.488V246.296H498.772V242.084ZM502.876 245.6V244.52H499.54V245.6H502.876ZM499.54 243.872H502.876V242.768H499.54V243.872ZM499.072 247.148L499.84 247.316C499.528 248.372 499.096 249.296 498.544 250.076L497.848 249.644C498.412 248.888 498.82 248.06 499.072 247.148ZM503.152 247.088C503.644 247.916 504.076 248.804 504.436 249.74L503.704 250.064C503.32 249.032 502.888 248.132 502.432 247.34L503.152 247.088ZM505.732 242.852H510.4C510.496 242.156 510.544 241.436 510.556 240.68V239.708H511.444V240.488C511.444 241.328 511.384 242.108 511.288 242.852H516.268V243.692H511.54C512.38 246.404 514.036 248.492 516.496 249.956L515.956 250.652C513.544 249.164 511.888 247.076 510.988 244.364C510.244 247.28 508.588 249.404 506.032 250.736L505.492 250.016C508.048 248.756 509.632 246.644 510.256 243.692H505.732V242.852ZM521.188 240.692H522.94V239.732H523.744V240.692H525.676V239.732H526.492V240.692H528.352V241.46H526.492V242.36H525.676V241.46H523.744V242.36H522.94V241.46H521.188V240.692ZM524.56 248.228C524.416 248.528 524.236 248.804 524.044 249.044C523.492 249.74 522.532 250.28 521.152 250.676L520.84 249.956C522.04 249.632 522.892 249.164 523.42 248.552C523.54 248.396 523.66 248.24 523.756 248.072H520.96V247.28H524.116C524.212 246.992 524.284 246.68 524.344 246.368H521.824V242.732H527.572V246.368H525.112C525.064 246.704 524.992 247.004 524.92 247.28H528.376V248.072H525.34C526.036 248.888 527.092 249.548 528.508 250.052L527.932 250.736C526.372 250.064 525.256 249.236 524.56 248.228ZM520.024 244.556V250.664H519.208V244.688C518.836 245.816 518.368 246.848 517.792 247.772L517.42 246.836C518.248 245.684 518.848 244.388 519.208 242.924V242.852H517.816V242.072H519.208V239.744H520.024V242.072H521.284V242.852H520.024V243.644C520.54 244.268 521.068 244.988 521.62 245.792L521.164 246.476C520.72 245.684 520.336 245.048 520.024 244.556ZM526.792 245.696V244.88H522.604V245.696H526.792ZM522.604 244.232H526.792V243.428H522.604V244.232ZM530.116 240.236H535.756V241.004H534.544V242.804H536.02V243.596H534.544V246.236H533.704V243.596H532.132C532 244.832 531.544 245.756 530.752 246.38L530.104 245.816C530.776 245.312 531.172 244.58 531.292 243.596H529.804V242.804H531.34V241.004H530.116V240.236ZM532.168 241.004V242.804H533.704V241.004H532.168ZM536.728 240.512H537.556V244.64H536.728V240.512ZM530.404 247.412H534.616V246.368H535.48V247.412H539.608V248.204H535.48V249.608H540.268V250.4H529.732V249.608H534.616V248.204H530.404V247.412ZM538.768 246.344H537.16L536.98 245.528C537.508 245.564 538 245.588 538.48 245.588C538.756 245.588 538.9 245.396 538.9 245.036V239.852H539.728V245.24C539.728 245.972 539.404 246.344 538.768 246.344Z" fill="#1E293B"/>
<path d="M298 206C298 202.686 300.686 200 304 200H414C417.314 200 420 202.686 420 206V226C420 229.314 417.314 232 414 232H304C300.686 232 298 229.314 298 226V206Z" fill="#4AABF0"/>
<path d="M349.886 210.724H351.93V209.604H352.868V210.724H355.122V209.604H356.074V210.724H358.244V211.62H356.074V212.67H355.122V211.62H352.868V212.67H351.93V211.62H349.886V210.724ZM353.82 219.516C353.652 219.866 353.442 220.188 353.218 220.468C352.574 221.28 351.454 221.91 349.844 222.372L349.48 221.532C350.88 221.154 351.874 220.608 352.49 219.894C352.63 219.712 352.77 219.53 352.882 219.334H349.62V218.41H353.302C353.414 218.074 353.498 217.71 353.568 217.346H350.628V213.104H357.334V217.346H354.464C354.408 217.738 354.324 218.088 354.24 218.41H358.272V219.334H354.73C355.542 220.286 356.774 221.056 358.426 221.644L357.754 222.442C355.934 221.658 354.632 220.692 353.82 219.516ZM348.528 215.232V222.358H347.576V215.386C347.142 216.702 346.596 217.906 345.924 218.984L345.49 217.892C346.456 216.548 347.156 215.036 347.576 213.328V213.244H345.952V212.334H347.576V209.618H348.528V212.334H349.998V213.244H348.528V214.168C349.13 214.896 349.746 215.736 350.39 216.674L349.858 217.472C349.34 216.548 348.892 215.806 348.528 215.232ZM356.424 216.562V215.61H351.538V216.562H356.424ZM351.538 214.854H356.424V213.916H351.538V214.854ZM360.302 210.192H366.882V211.088H365.468V213.188H367.19V214.112H365.468V217.192H364.488V214.112H362.654C362.5 215.554 361.968 216.632 361.044 217.36L360.288 216.702C361.072 216.114 361.534 215.26 361.674 214.112H359.938V213.188H361.73V211.088H360.302V210.192ZM362.696 211.088V213.188H364.488V211.088H362.696ZM368.016 210.514H368.982V215.33H368.016V210.514ZM360.638 218.564H365.552V217.346H366.56V218.564H371.376V219.488H366.56V221.126H372.146V222.05H359.854V221.126H365.552V219.488H360.638V218.564ZM370.396 217.318H368.52L368.31 216.366C368.926 216.408 369.5 216.436 370.06 216.436C370.382 216.436 370.55 216.212 370.55 215.792V209.744H371.516V216.03C371.516 216.884 371.138 217.318 370.396 217.318Z" fill="white"/>
<circle cx="192" cy="227" r="2" fill="#4AABF0"/>
<circle cx="509" cy="226" r="2" fill="#4AABF0"/>
<circle cx="589" cy="240" r="2" fill="#4AABF0"/>
</g>
<path d="M182.748 376.804C181.896 376.804 181.2 377.5 181.2 378.4C181.2 379.3 181.896 379.996 182.748 379.996C183.6 379.996 184.296 379.3 184.296 378.4C184.296 377.5 183.6 376.804 182.748 376.804Z" fill="#FF6A00"/>
<path d="M181.944 382.456H173.796V379.312H179.652V378.112H173.796V375.052H181.896C183.9 375.052 185.496 376.708 185.496 378.748C185.496 380.788 183.948 382.456 181.944 382.456ZM188.496 378.4H189.9V375.796C189.9 375.292 189.648 374.848 189.3 374.596L185.748 370.948C185.496 370.648 185.148 370.492 184.752 370.492H170.904C170.1 370.492 169.5 371.14 169.5 371.944V385.492C169.5 386.296 170.148 386.944 170.904 386.944H171.408V386.092H172.512V386.944H172.968V386.092H174.072V386.944H174.528V386.092H175.632V386.944H176.088V386.092H177.192V386.944H177.6V386.092H178.704V386.944H179.16V386.092H180.264V386.944H180.72V386.092H181.824V386.944H182.28V386.092H183.384V386.944H183.84V386.092H184.944V386.944H185.4V386.092H186.504V386.944H186.96V386.092H188.064V386.992H188.616C189.42 386.992 190.02 386.344 190.02 385.54V379.744H188.616C188.22 379.744 187.764 379.54 187.764 379.096C187.656 378.7 188.1 378.4 188.496 378.4Z" fill="#FF6A00"/>
<path d="M254.748 377.804C253.896 377.804 253.2 378.5 253.2 379.4C253.2 380.3 253.896 380.996 254.748 380.996C255.6 380.996 256.296 380.3 256.296 379.4C256.296 378.5 255.6 377.804 254.748 377.804Z" fill="#4AABF0"/>
<path d="M253.944 383.456H245.796V380.312H251.652V379.112H245.796V376.052H253.896C255.9 376.052 257.496 377.708 257.496 379.748C257.496 381.788 255.948 383.456 253.944 383.456ZM260.496 379.4H261.9V376.796C261.9 376.292 261.648 375.848 261.3 375.596L257.748 371.948C257.496 371.648 257.148 371.492 256.752 371.492H242.904C242.1 371.492 241.5 372.14 241.5 372.944V386.492C241.5 387.296 242.148 387.944 242.904 387.944H243.408V387.092H244.512V387.944H244.968V387.092H246.072V387.944H246.528V387.092H247.632V387.944H248.088V387.092H249.192V387.944H249.6V387.092H250.704V387.944H251.16V387.092H252.264V387.944H252.72V387.092H253.824V387.944H254.28V387.092H255.384V387.944H255.84V387.092H256.944V387.944H257.4V387.092H258.504V387.944H258.96V387.092H260.064V387.992H260.616C261.42 387.992 262.02 387.344 262.02 386.54V380.744H260.616C260.22 380.744 259.764 380.54 259.764 380.096C259.656 379.7 260.1 379.4 260.496 379.4Z" fill="#4AABF0"/>
<path d="M443.748 377.804C442.896 377.804 442.2 378.5 442.2 379.4C442.2 380.3 442.896 380.996 443.748 380.996C444.6 380.996 445.296 380.3 445.296 379.4C445.296 378.5 444.6 377.804 443.748 377.804Z" fill="#DB4E66"/>
<path d="M442.944 383.456H434.796V380.312H440.652V379.112H434.796V376.052H442.896C444.9 376.052 446.496 377.708 446.496 379.748C446.496 381.788 444.948 383.456 442.944 383.456ZM449.496 379.4H450.9V376.796C450.9 376.292 450.648 375.848 450.3 375.596L446.748 371.948C446.496 371.648 446.148 371.492 445.752 371.492H431.904C431.1 371.492 430.5 372.14 430.5 372.944V386.492C430.5 387.296 431.148 387.944 431.904 387.944H432.408V387.092H433.512V387.944H433.968V387.092H435.072V387.944H435.528V387.092H436.632V387.944H437.088V387.092H438.192V387.944H438.6V387.092H439.704V387.944H440.16V387.092H441.264V387.944H441.72V387.092H442.824V387.944H443.28V387.092H444.384V387.944H444.84V387.092H445.944V387.944H446.4V387.092H447.504V387.944H447.96V387.092H449.064V387.992H449.616C450.42 387.992 451.02 387.344 451.02 386.54V380.744H449.616C449.22 380.744 448.764 380.54 448.764 380.096C448.656 379.7 449.1 379.4 449.496 379.4Z" fill="#DB4E66"/>
<path d="M507.748 377.804C506.896 377.804 506.2 378.5 506.2 379.4C506.2 380.3 506.896 380.996 507.748 380.996C508.6 380.996 509.296 380.3 509.296 379.4C509.296 378.5 508.6 377.804 507.748 377.804Z" fill="#22C55E"/>
<path d="M506.944 383.456H498.796V380.312H504.652V379.112H498.796V376.052H506.896C508.9 376.052 510.496 377.708 510.496 379.748C510.496 381.788 508.948 383.456 506.944 383.456ZM513.496 379.4H514.9V376.796C514.9 376.292 514.648 375.848 514.3 375.596L510.748 371.948C510.496 371.648 510.148 371.492 509.752 371.492H495.904C495.1 371.492 494.5 372.14 494.5 372.944V386.492C494.5 387.296 495.148 387.944 495.904 387.944H496.408V387.092H497.512V387.944H497.968V387.092H499.072V387.944H499.528V387.092H500.632V387.944H501.088V387.092H502.192V387.944H502.6V387.092H503.704V387.944H504.16V387.092H505.264V387.944H505.72V387.092H506.824V387.944H507.28V387.092H508.384V387.944H508.84V387.092H509.944V387.944H510.4V387.092H511.504V387.944H511.96V387.092H513.064V387.992H513.616C514.42 387.992 515.02 387.344 515.02 386.54V380.744H513.616C513.22 380.744 512.764 380.54 512.764 380.096C512.656 379.7 513.1 379.4 513.496 379.4Z" fill="#22C55E"/>
<rect x="80.5" y="66.5" width="547" height="81" rx="11.5" stroke="#02F6F7"/>
<path d="M302.12 85.328C302.968 87.632 303.72 90.256 304.392 93.232L302.728 93.664C302.6 93.088 302.488 92.528 302.36 92C300.28 92.384 298.04 92.736 295.64 93.088L295.336 91.488C295.784 91.36 296.04 91.184 296.12 90.944L299.32 79.312L300.984 79.536L297.752 91.12C299.384 90.88 300.792 90.64 301.976 90.416C301.576 88.848 301.128 87.312 300.632 85.84L302.12 85.328ZM289.992 82.992H292.648V81.168C291.912 81.264 291.16 81.344 290.392 81.408L290.04 79.808C292.344 79.648 294.392 79.344 296.2 78.896L296.776 80.432C296.008 80.624 295.192 80.784 294.328 80.928V82.992H296.728V84.608H294.328V85.056C295.08 85.76 295.848 86.544 296.616 87.408L295.688 88.816C295.16 87.936 294.712 87.216 294.328 86.672V93.616H292.648V87.104C292.04 88.4 291.288 89.584 290.392 90.672L289.64 88.752C290.952 87.536 291.912 86.144 292.52 84.608H289.992V82.992ZM310.872 84.912V86.192H316.696V84.912H310.872ZM316.696 87.632H310.872V88.88H316.696V87.632ZM316.696 90.32H310.872V93.648H309.304V85.84C308.52 86.736 307.64 87.584 306.68 88.368L305.592 86.944C307.4 85.52 308.824 83.888 309.88 82.064H306.024V80.448H310.68C310.92 79.888 311.128 79.328 311.304 78.752L313.016 78.96C312.856 79.472 312.696 79.968 312.52 80.448H320.152V82.064H311.816C311.56 82.544 311.304 83.008 311.032 83.472H318.264V92.144C318.264 93.072 317.72 93.536 316.648 93.568H314.856L314.456 92.064C315.048 92.112 315.608 92.144 316.12 92.144C316.504 92.144 316.696 91.968 316.696 91.616V90.32ZM326.264 78.704L327.832 79.44C327.304 80.736 326.6 81.968 325.736 83.136V93.696H324.072V85.088C323.448 85.712 322.776 86.32 322.072 86.912L321.528 85.168C323.656 83.344 325.24 81.184 326.264 78.704ZM333.96 93.408H330.984C329.64 93.408 328.968 92.736 328.968 91.408V87.072C328.424 87.36 327.864 87.632 327.304 87.904L326.552 86.32C327.4 85.936 328.2 85.536 328.968 85.12V78.976H330.632V84.096C332.152 83.072 333.496 81.92 334.664 80.64L335.832 81.968C334.296 83.536 332.568 84.912 330.632 86.112V91.168C330.632 91.6 330.872 91.824 331.368 91.824H333.672C334.024 91.824 334.28 91.696 334.44 91.472C334.6 91.232 334.696 90.4 334.728 88.976L336.264 89.504C336.152 91.344 335.944 92.464 335.64 92.848C335.336 93.216 334.776 93.408 333.96 93.408ZM342.584 80.064H344.68V78.912H346.232V80.064H348.328V78.912H349.896V80.064H352.2V81.536H349.896V82.48H348.328V81.536H346.232V82.48H344.68V81.536H342.584V80.064ZM347.16 90.656C346.984 90.944 346.808 91.2 346.616 91.456C345.88 92.4 344.568 93.136 342.712 93.68L342.136 92.304C343.656 91.888 344.76 91.28 345.432 90.512C345.496 90.432 345.544 90.368 345.576 90.32H342.216V88.816H346.344C346.424 88.544 346.488 88.256 346.552 87.968H343.304V82.832H351.24V87.968H348.024C347.976 88.256 347.928 88.544 347.864 88.816H352.232V90.32H348.712C349.576 91.152 350.808 91.856 352.44 92.4L351.304 93.744C349.416 92.912 348.024 91.888 347.16 90.656ZM341.272 86.048V93.616H339.704V86.672C339.288 87.84 338.808 88.928 338.232 89.936L337.512 88.08C338.504 86.736 339.24 85.216 339.704 83.52V83.376H338.024V81.856H339.704V78.96H341.272V81.856H342.776V83.376H341.272V84.208C341.912 84.96 342.584 85.792 343.256 86.704L342.376 88.032C341.96 87.248 341.592 86.592 341.272 86.048ZM349.736 86.72V86.016H344.792V86.72H349.736ZM344.792 84.8H349.736V84.112H344.792V84.8ZM354.392 79.424H362.104V80.896H360.632V82.832H362.456V84.368H360.632V87.712H359.032V84.368H357.368C357.176 85.936 356.584 87.104 355.624 87.904L354.36 86.8C355.096 86.24 355.544 85.424 355.736 84.368H353.976V82.832H355.832V80.896H354.392V79.424ZM357.448 80.896V82.832H359.032V80.896H357.448ZM363.064 79.952H364.648V85.424H363.064V79.952ZM354.808 88.96H360.232V87.888H361.896V88.96H367.208V90.496H361.896V91.824H368.088V93.344H353.912V91.824H360.232V90.496H354.808V88.96ZM366.04 87.92H363.896L363.528 86.352C364.216 86.416 364.872 86.464 365.48 86.464C365.784 86.464 365.944 86.208 365.944 85.696V79.072H367.56V86.096C367.56 87.312 367.048 87.92 366.04 87.92ZM371.976 83.968V85.68H375.144V83.968H371.976ZM375.144 82.48V80.864H371.976V82.48H375.144ZM370.216 93.232L369.64 91.632C370.104 91.472 370.344 91.184 370.344 90.784V79.36H376.712V87.232H371.976V91.088C373.096 90.768 374.104 90.416 375.032 90.064C374.792 89.648 374.552 89.248 374.296 88.848L375.56 88.048C376.536 89.552 377.288 90.864 377.816 91.984L376.52 92.896C376.296 92.416 376.072 91.936 375.816 91.456C374.168 92.128 372.296 92.72 370.216 93.232ZM382.072 91.488H380.856L380.408 89.872L381.512 89.936C381.96 89.936 382.2 89.712 382.2 89.28V80.96H379.944V93.632H378.28V79.392H383.864V89.664C383.864 90.88 383.256 91.488 382.072 91.488ZM388.136 84.624V86.832H390.232V84.624H388.136ZM390.232 83.136V80.896H388.136V83.136H390.232ZM388.104 88.336C387.976 90.496 387.592 92.288 386.936 93.712L385.672 92.56C386.312 91.184 386.632 89.44 386.648 87.328V79.392H391.752V91.92C391.752 93.04 391.24 93.616 390.216 93.616H388.936L388.536 92.16C388.968 92.192 389.368 92.224 389.752 92.224C390.072 92.224 390.232 91.936 390.232 91.376V88.336H388.104ZM394.296 86.752V92.288C395.064 91.84 395.72 91.312 396.28 90.688C395.384 89.52 394.76 88.208 394.424 86.752H394.296ZM394.296 92.416V93.68H392.728V79.392H399.576C399.576 81.504 399.464 82.928 399.272 83.632C399.08 84.304 398.456 84.656 397.432 84.656H396.088L395.64 83.232C395.896 83.232 396.248 83.248 396.68 83.248C397.016 83.248 397.256 83.216 397.4 83.184C397.56 83.136 397.672 83.008 397.768 82.784C397.848 82.528 397.912 81.904 397.944 80.896H394.296V85.28H399.688V86.672C399.416 88.192 398.952 89.504 398.312 90.592C398.952 91.2 399.672 91.744 400.488 92.224L399.672 93.648C398.776 93.104 398.008 92.528 397.368 91.904C396.728 92.608 395.96 93.2 395.096 93.664L394.296 92.416ZM395.848 86.752C396.152 87.712 396.6 88.592 397.208 89.376C397.64 88.608 397.976 87.728 398.216 86.752H395.848ZM406.216 78.784L407.912 79.04C407.752 79.408 407.592 79.76 407.416 80.08H414.216V81.424C413.272 82.512 412.152 83.44 410.84 84.208C412.52 84.816 414.392 85.216 416.44 85.408L415.688 86.96C413.208 86.672 410.984 86.08 409 85.152C407.096 86 404.888 86.624 402.36 87.008L401.592 85.44C403.672 85.184 405.528 84.752 407.16 84.176C406.456 83.744 405.8 83.28 405.192 82.784C404.664 83.216 404.088 83.616 403.48 84L402.472 82.672C404.328 81.616 405.576 80.32 406.216 78.784ZM408.984 83.408C410.008 82.896 410.92 82.32 411.736 81.648H406.328L406.296 81.68C407.128 82.352 408.024 82.928 408.984 83.408ZM407.768 86.064H409.416C409.416 86.608 409.368 87.136 409.304 87.616H414.776C414.744 90.464 414.504 92.16 414.056 92.72C413.608 93.28 412.824 93.568 411.704 93.568C411.144 93.568 410.472 93.536 409.672 93.472L409.256 91.968C410.104 92.016 410.792 92.048 411.336 92.064C412.088 92.048 412.552 91.888 412.744 91.584C412.952 91.264 413.08 90.448 413.112 89.12H408.92C408.792 89.488 408.632 89.84 408.44 90.16C407.672 91.584 405.8 92.768 402.824 93.728L401.72 92.368C404.312 91.616 406.008 90.704 406.792 89.632C406.904 89.456 407 89.28 407.096 89.12H402.712V87.616H407.608C407.704 87.12 407.752 86.608 407.768 86.064Z" fill="black"/>
<defs>
<linearGradient id="paint0_linear_36390_12188" x1="94" y1="325" x2="608" y2="325" gradientUnits="userSpaceOnUse">
<stop stop-color="white" stop-opacity="0"/>
<stop offset="0.504808" stop-color="#4AABF0"/>
<stop offset="1" stop-color="#4AABF0" stop-opacity="0"/>
</linearGradient>
<linearGradient id="paint1_linear_36390_12188" x1="361" y1="132.826" x2="361" y2="308" gradientUnits="userSpaceOnUse">
<stop stop-color="#DDCCFF"/>
<stop offset="1" stop-color="#F1E9FF"/>
</linearGradient>
<linearGradient id="paint2_linear_36390_12188" x1="352.5" y1="287" x2="352.5" y2="217" gradientUnits="userSpaceOnUse">
<stop stop-color="#4AABF0" stop-opacity="0"/>
<stop offset="1" stop-color="#4AABF0" stop-opacity="0.2"/>
</linearGradient>
<linearGradient id="paint3_linear_36390_12188" x1="670" y1="251.75" x2="35" y2="251.75" gradientUnits="userSpaceOnUse">
<stop stop-color="#4AABF0" stop-opacity="0"/>
<stop offset="0.173077" stop-color="#4AABF0"/>
<stop offset="0.504808" stop-color="#4AABF0"/>
<stop offset="0.798077" stop-color="#4AABF0"/>
<stop offset="1" stop-color="#4AABF0" stop-opacity="0"/>
</linearGradient>
<radialGradient id="paint4_radial_36390_12188" cx="0" cy="0" r="1" gradientUnits="userSpaceOnUse" gradientTransform="translate(183 120) rotate(90) scale(16 80)">
<stop stop-color="white"/>
<stop offset="1" stop-color="#A5EEEE"/>
</radialGradient>
<radialGradient id="paint5_radial_36390_12188" cx="0" cy="0" r="1" gradientUnits="userSpaceOnUse" gradientTransform="translate(353 118) rotate(90) scale(16 80)">
<stop stop-color="white"/>
<stop offset="1" stop-color="#A5EEEE"/>
</radialGradient>
<radialGradient id="paint6_radial_36390_12188" cx="0" cy="0" r="1" gradientUnits="userSpaceOnUse" gradientTransform="translate(523 120) rotate(90) scale(16 80)">
<stop stop-color="white"/>
<stop offset="1" stop-color="#A5EEEE"/>
</radialGradient>
</defs>
</svg>
